<?xml version="1.0" standalone="no"?><!-- Generator: Gravit.io --><svg xmlns="http://www.w3.org/2000/svg" xmlns:xlink="http://www.w3.org/1999/xlink" style="isolation:isolate" viewBox="0 0 1440 307" width="1440" height="307"><defs><clipPath id="_clipPath_JWVMSxZm2b0OvPRMp7vrCkMe723HgF0J"><rect width="1440" height="307"/></clipPath></defs><g clip-path="url(#_clipPath_JWVMSxZm2b0OvPRMp7vrCkMe723HgF0J)"><path d=" M 1206.12 148.834 C 1206.651 147.842 1207.181 146.857 1207.711 145.87 C 1205.181 145.936 1204.645 145.566 1202.543 144.035 C 1200.694 147.658 1204.079 145.276 1202.766 148.938 C 1204.346 147.405 1205.396 148.534 1206.12 148.833 M 1218.128 153.296 C 1218.063 154.779 1219.931 154.696 1219.218 156.709 C 1220.156 156.053 1221.223 153.612 1221.995 155.313 C 1221.321 156.979 1220.797 156.493 1220.25 156.303 C 1219.783 158.699 1222.355 157.821 1223.286 155.981 C 1224.682 156.132 1223.066 158.747 1224.073 159.221 C 1224.72 159.142 1224.436 158.198 1225.226 156.984 C 1225.273 157.949 1224.821 159.329 1225.366 159.889 C 1227.183 155.926 1226.791 160.369 1228.287 161.391 C 1228.935 161.309 1228.645 160.367 1229.434 159.151 C 1230.022 161.144 1230.437 160.601 1230.887 162.716 C 1231.531 163.202 1232.387 160.14 1233.119 159.141 C 1232.677 159.068 1232.15 160.365 1231.65 161.219 C 1231.645 160.069 1232.74 158.013 1231.881 157.566 C 1234.782 155.546 1235.139 159.113 1236.857 158.218 C 1235.202 161.531 1234.014 157.294 1232.242 162.469 C 1235.243 163.274 1239.082 159.343 1237.775 165.274 C 1241.403 162.23 1240.061 169.65 1243.198 164.241 C 1243.863 165.432 1244.058 167.007 1244.302 168.553 C 1245.137 169.671 1246.242 165.704 1247.058 167.11 C 1245.811 169.295 1249.08 169.666 1249.201 170.992 C 1249.849 170.899 1249.547 169.964 1250.319 168.734 C 1249.519 175.211 1256.053 167.224 1254.759 173.727 C 1255.205 173.79 1255.71 172.484 1256.193 171.625 C 1255.681 176.52 1261.226 171.276 1259.34 175.963 C 1260.753 174.269 1262.082 174.44 1263.427 174.207 C 1264.294 174.193 1263.527 175.588 1262.983 176.792 C 1264.791 175.317 1264.433 179.565 1266.041 175.472 C 1264.685 181.91 1271.768 174.323 1269.871 180.092 C 1272.861 177.063 1273.622 185.486 1276.523 180.452 C 1277.651 180.342 1276.42 182.322 1276.438 183.194 C 1281.274 181.292 1283.108 188.881 1288.699 185.174 C 1288.96 187.274 1290.652 189.08 1292.662 186.054 C 1292.814 188.568 1294.745 186.786 1294.26 189.546 C 1295.968 189.156 1296.931 189.277 1297.941 187.504 C 1298.501 187.89 1296.984 190.19 1297.229 190.868 C 1300.119 187.72 1300.413 196.395 1305.181 191.628 C 1306.042 191.578 1305.331 192.996 1304.832 194.224 C 1305.599 195.381 1306.392 191.917 1307.169 191.574 C 1307.131 194.96 1311.293 191.832 1310.132 196.524 C 1311.419 197.111 1311.858 195.328 1312.449 194.774 C 1312.439 197.852 1314.369 196.407 1316.086 195.408 C 1315.577 199.121 1317.56 198.669 1320.722 197.354 C 1320.695 198.537 1320.345 198.628 1319.752 199.68 C 1323.382 203.011 1327.997 195.69 1327.402 202.834 C 1328.68 199.555 1328.333 201.034 1328.384 202.327 C 1329.31 202.198 1328.472 200.954 1329.662 200.132 C 1330.229 200.497 1328.798 202.85 1329.065 203.512 C 1329.833 203.448 1330.615 203.813 1331.339 201.717 C 1332.449 201.549 1331.334 203.595 1331.399 204.458 C 1332.069 204.888 1332.716 204.245 1333.335 202.516 C 1333.312 203.473 1334.465 203.249 1333.401 205.252 C 1333.941 204.806 1334.472 204.033 1335.001 203.176 C 1335.675 203.897 1335.288 205.693 1336.072 206.312 C 1337.286 206.696 1336.383 203.446 1337.33 204.1 C 1338.767 204.418 1337.97 204.685 1337.073 206.71 C 1338.348 207.108 1338.359 205.903 1338.967 203.85 C 1339.933 203.963 1339.635 205.361 1338.742 207.367 C 1339.765 208.247 1340.646 204.917 1341.663 205.794 C 1340.976 208.284 1340.19 207.875 1339.504 210.361 C 1338.555 209.091 1335.775 210.178 1333.859 209.951 C 1340.817 216.253 1347.974 217.811 1353.187 220.011 C 1354.007 218.047 1354.313 225.117 1356.112 219.294 C 1356.895 219.405 1356.947 220.315 1356.27 222.019 C 1365.71 226.323 1375.763 230.113 1382.478 229.413 C 1387.473 231.726 1392.235 234.604 1397.264 237.07 C 1402.275 239.527 1407.581 241.593 1413.225 242.05 C 1412.72 244.667 1413.105 243.944 1412.991 247.083 C 1415.073 246.103 1416.206 247.403 1417.178 248.985 C 1418.14 250.571 1418.914 252.353 1420.086 252.235 C 1420.244 255.575 1418.391 254.543 1418.236 257.303 C 1419.842 257.994 1422.866 255.293 1422.898 259.739 C 1420.94 259.212 1419.899 260.579 1418.224 260.662 C 1418.899 263.964 1421.885 262.349 1423.064 264.779 C 1423.271 269.14 1421.468 270.535 1424.132 271.474 C 1418.268 273.152 1411.602 273.966 1404.66 273.964 C 1397.714 273.972 1390.508 273.18 1383.41 271.907 C 1369.172 269.367 1355.486 264.95 1343.23 261.944 C 1336.393 260.265 1329.802 259.397 1326.383 255.705 C 1310.419 251.989 1293.673 245.722 1277.125 238.64 C 1260.555 231.58 1244.176 223.71 1228.526 216.974 C 1210.48 209.171 1192.736 201.332 1175.436 192.481 C 1158.166 183.667 1141.428 173.842 1125.892 162.378 C 1116.072 155.124 1104.827 150.068 1095.665 141.915 C 1077.438 125.703 1058.528 109.811 1041.802 91.499 C 1033.452 82.359 1025.672 72.632 1018.982 62.171 C 1012.294 51.717 1006.7 40.522 1002.812 28.671 C 1004.5 25.062 1004.562 21.797 1004.626 18.509 C 1004.691 15.224 1004.647 11.989 1005.976 8.634 C 1007.909 11.054 1010.757 12.326 1013.984 12.994 C 1017.224 13.656 1020.924 13.671 1024.466 13.716 C 1026.242 13.736 1027.991 13.756 1029.652 13.854 C 1031.332 13.941 1032.939 14.098 1034.395 14.416 C 1037.335 15.039 1039.599 16.341 1041.039 18.837 C 1043.891 18.483 1046.742 19.108 1046.544 22.007 C 1048.854 18.307 1045.494 16.175 1046.114 13.01 C 1047.694 13.869 1049.176 14.897 1050.534 16.077 C 1051.183 16.641 1051.805 17.236 1052.397 17.859 C 1053.005 18.462 1053.588 19.09 1054.144 19.741 C 1055.255 21.037 1056.267 22.411 1057.225 23.832 C 1058.212 25.242 1059.169 26.673 1060.096 28.124 C 1079.664 58.504 1104.66 84.992 1132.4 103.137 C 1132.321 106.189 1134.898 106.009 1136.114 107.755 C 1139.089 111.945 1145.599 112.105 1149.334 115.559 C 1153.437 119.386 1159.105 122.384 1165.131 127.454 C 1165.593 126.578 1164.943 126.506 1164.651 126.17 C 1165.771 126.408 1168.879 125.544 1166.361 128.201 C 1168.501 129.377 1170.949 131.053 1173.213 132.293 C 1175.494 133.513 1177.589 134.295 1178.984 133.711 C 1179.09 136.111 1183.078 139.461 1185.964 136.743 C 1186.261 137.075 1185.471 138.226 1185.032 139.117 C 1187.257 138.177 1191.918 144.459 1194.589 143.507 C 1195.939 145.319 1199.052 143.292 1200.386 145.729 C 1201.151 145.897 1202.239 142.535 1203.032 142.384 C 1204.188 145.152 1209.915 143.001 1210.979 146.664 C 1209.551 148.674 1210.056 147.242 1209.306 146.724 C 1207.908 149.398 1209.172 149.95 1208.53 152.025 C 1209.481 152.676 1210.866 147.965 1211.707 149.915 C 1208.799 152.645 1213.317 152.913 1215.237 151.777 C 1213.505 153.479 1215.945 157.289 1218.128 153.297 M 1114.573 85.792 C 1116.311 83.102 1116.529 85.957 1117.536 85.954 C 1115.326 87.885 1116.309 85.636 1114.573 85.792 Z  M 1125.343 91.843 C 1126.541 91.877 1125.366 93.335 1126.245 93.564 C 1124.673 95.604 1123.685 93.852 1125.343 91.844 M 1134.718 101.677 C 1133.403 101.097 1132.542 100.233 1133.084 98.488 C 1133.889 98.483 1136.1 98.774 1134.718 101.678 M 1229.876 157.486 C 1229.032 157.46 1229.278 156.538 1228.963 156.076 C 1229.717 154.804 1230.391 154.664 1231.025 155.244 L 1229.876 157.486 Z  M 1245.203 164.306 C 1246.128 163.676 1247.079 162.534 1247.955 162.866 L 1246.832 165.117 C 1245.567 165.142 1245.94 165.328 1245.203 164.307 M 1142.003 106.679 C 1145.521 103.899 1147.593 107.899 1148.651 110.101 C 1145.866 112.214 1143.028 108.275 1142.003 106.679 Z  M 1198.688 139.062 C 1198.562 140.699 1200.483 140.736 1201.446 141.522 C 1199.926 143.118 1197.582 142.157 1198.688 139.062 Z  M 1211.296 146.833 C 1213.868 144.77 1215.316 147.868 1215.381 149.951 C 1213.952 150.125 1212.063 148.451 1211.296 146.833 Z  M 1178.08 130.269 C 1180.285 126.333 1180.397 131.243 1182.64 130.976 C 1180.482 133.123 1180.164 131.316 1178.08 130.269 Z  M 1184.191 131.872 C 1185.015 132.215 1185.755 132.622 1185.646 133.666 C 1184.378 135.231 1182.891 134.337 1184.191 131.872 Z  M 1191.707 139.025 C 1194.184 134.427 1197.061 137.81 1196.934 140.005 C 1195.027 141.327 1193.601 137.897 1191.707 139.025 Z  M 1343.497 211.007 C 1345.044 207.965 1346.743 209.788 1347.784 210.834 C 1346.405 212.016 1344.956 211.701 1343.497 211.007 Z  M 1357.202 215.222 C 1357.879 213.513 1358.648 213.822 1359.428 214.228 C 1358.685 217.048 1357.251 216.653 1357.202 215.222 Z  M 1160.305 117.567 C 1158.472 117.269 1157.199 113.621 1154.893 116.144 C 1155.989 117.379 1159.063 117.232 1157.92 120.035 C 1159.978 116.031 1158.608 120.599 1160.305 117.567 Z " fill-rule="evenodd" fill="rgb(87,67,223)"/><path d=" M 1005.372 136.809 C 1004.444 135.782 1003.536 135.979 1003.671 135.313 C 1000.3 133.773 1002.067 136.176 1000.42 135.823 C 1004.637 126.15 1011.854 118.079 1019.513 110.46 C 1027.421 102.585 1034.51 91.508 1051.848 91.852 C 1053.334 93.467 1050.39 91.394 1052.474 93.433 C 1054.683 94.296 1056.148 94.342 1058.246 94.839 C 1060.262 95.315 1063.647 97.028 1065.799 97.642 C 1068.143 98.313 1069.171 97.823 1075.471 102.632 C 1076.83 102.609 1081.224 105.799 1082.661 105.873 C 1086.349 109.043 1088 109.975 1091.704 112.723 C 1091.893 113.184 1090.499 111.948 1091.477 112.984 C 1093.969 114.785 1094.859 114.896 1098.336 117.745 L 1096.097 116.869 C 1098.986 119.331 1098.816 118.122 1101.639 120.839 C 1101.078 120.862 1102.081 121.782 1104.066 123.795 C 1092.895 121.071 1085.4 121.851 1079.509 124.063 C 1073.617 126.279 1069.315 129.912 1064.432 133.021 C 1057.335 137.54 1054.025 143.313 1048.891 149.759 C 1045.048 154.578 1041.73 160.113 1036.815 163.98 C 1030.35 169.089 1027.78 175.708 1015.488 176.003 C 1013.022 174.43 1011.996 174.141 1009.561 172.598 C 997.484 163.754 997.093 161.134 995.521 158.603 C 994.583 157.098 992.619 154.743 992.477 153.837 C 992.045 151.061 995.16 151.474 995.803 149.385 C 996.432 147.341 997.098 145.541 998.635 144.379 C 999.157 143.982 998.065 142.474 1000.282 143.453 C 998.785 140.159 1003.144 140.954 1004.299 139.442 C 1004.552 139.112 1003.012 137.398 1003.249 137.087 C 1003.53 136.733 1005.037 137.011 1005.328 136.866 L 1005.372 136.809 L 1005.372 136.809 Z  M 997.554 139.56 C 996.212 138.441 996.458 138.191 997.352 138.585 C 998.241 139.498 996.996 138.747 997.554 139.56 Z  M 988.162 145.741 C 990.785 143.425 993.065 141.219 996.004 139.106 C 996.679 139.653 997.45 140.368 996.517 139.678 C 993.986 142.211 993.388 146.233 988.162 145.741 L 988.162 145.741 Z  M 997.838 137.952 C 1001.417 141.955 994.649 136.025 997.194 137.55 C 997.163 137.533 997.634 137.723 997.838 137.952 Z  M 999.689 135.534 C 999.797 136.03 998.292 135.964 999.581 136.915 C 1000.025 136.767 1000.783 136.515 999.689 135.534 Z " fill-rule="evenodd" fill="rgb(90,224,210)"/><path d=" M 93.179 94.729 C 92.251 93.702 91.342 93.899 91.478 93.233 C 88.107 91.693 89.873 94.097 88.226 93.743 C 92.443 84.07 99.661 75.999 107.32 68.38 C 115.228 60.506 122.316 49.428 139.655 49.772 C 141.14 51.387 138.196 49.315 140.28 51.354 C 142.489 52.216 143.954 52.263 146.052 52.76 C 148.069 53.235 151.454 54.949 153.605 55.562 C 155.95 56.234 156.978 55.744 163.277 60.552 C 164.636 60.53 169.03 63.719 170.468 63.793 C 174.155 66.964 175.806 67.896 179.51 70.644 C 179.7 71.104 178.305 69.868 179.283 70.904 C 181.776 72.706 182.665 72.816 186.142 75.665 L 183.903 74.789 C 186.793 77.251 186.622 76.042 189.445 78.76 C 188.885 78.783 189.887 79.702 191.872 81.715 C 180.701 78.991 173.206 79.772 167.316 81.983 C 161.424 84.2 157.122 87.832 152.238 90.941 C 145.142 95.461 141.832 101.233 136.698 107.68 C 132.855 112.498 129.536 118.034 124.621 121.9 C 118.156 127.009 115.586 133.628 103.295 133.924 C 100.828 132.35 99.803 132.061 97.368 130.519 C 85.291 121.675 84.899 119.054 83.327 116.523 C 82.389 115.018 80.426 112.663 80.284 111.757 C 79.852 108.981 82.966 109.395 83.609 107.306 C 84.238 105.261 84.905 103.461 86.442 102.299 C 86.963 101.902 85.871 100.395 88.089 101.374 C 86.592 98.079 90.95 98.874 92.106 97.363 C 92.358 97.032 90.819 95.318 91.056 95.008 C 91.336 94.653 92.844 94.931 93.135 94.786 L 93.179 94.729 L 93.179 94.729 Z  M 85.361 97.481 C 84.018 96.362 84.264 96.111 85.158 96.506 C 86.048 97.418 84.802 96.668 85.361 97.481 Z  M 75.969 103.661 C 78.592 101.345 80.872 99.139 83.811 97.026 C 84.485 97.573 85.257 98.288 84.324 97.599 C 81.793 100.132 81.194 104.153 75.969 103.661 L 75.969 103.661 Z  M 85.644 95.872 C 89.224 99.875 82.455 93.945 85 95.471 C 84.969 95.454 85.441 95.643 85.644 95.872 Z  M 87.496 93.455 C 87.603 93.951 86.099 93.884 87.387 94.835 C 87.831 94.688 88.59 94.436 87.496 93.455 Z " fill-rule="evenodd" fill="rgb(251,173,55)"/><path d=" M 1287.596 69.906 L 1290.574 65.834 C 1288.223 66.44 1287.912 66.096 1286.759 64.607 C 1283.211 69.57 1287.539 65.847 1284.465 70.743 C 1286.704 68.471 1287.085 69.679 1287.595 69.906 M 1296.271 73.088 C 1295.444 74.978 1297.187 74.498 1295.494 77.188 C 1296.688 76.172 1298.923 72.87 1298.736 74.878 C 1297.258 77.12 1297.036 76.606 1296.642 76.47 C 1294.97 79.6 1297.754 77.988 1299.557 75.473 C 1300.742 75.392 1297.914 79.023 1298.579 79.427 C 1299.206 79.201 1299.442 78.061 1300.789 76.367 C 1300.328 77.582 1299.199 79.42 1299.402 80.023 C 1303.109 74.649 1300.448 80.348 1301.252 81.367 C 1301.879 81.141 1302.112 79.999 1303.459 78.306 C 1302.945 80.725 1303.599 79.96 1302.899 82.558 C 1303.226 83.051 1305.599 79 1306.783 77.592 C 1306.421 77.586 1305.268 79.332 1304.369 80.512 C 1304.967 79.052 1307.029 76.235 1306.492 75.829 C 1310.158 72.716 1308.621 77.165 1310.639 75.699 C 1307.412 80.221 1308.555 75.077 1304.251 81.983 C 1306.541 82.422 1312.054 76.701 1307.766 84.489 C 1312.624 79.936 1307.524 89.619 1313.181 82.155 C 1313.156 83.539 1312.498 85.517 1311.904 87.439 C 1312.062 88.711 1315.139 83.457 1315.13 85.098 C 1312.864 88.108 1315.595 87.985 1315.005 89.651 C 1315.634 89.415 1315.857 88.279 1317.195 86.571 C 1313.065 94.974 1323.109 83.628 1318.519 92.157 C 1318.885 92.157 1320.026 90.403 1320.909 89.22 C 1317.869 95.553 1325.575 87.904 1321.418 94.215 C 1323.574 91.804 1324.668 91.792 1325.991 91.259 C 1326.771 91.089 1325.349 93.006 1324.228 94.637 C 1326.621 92.437 1324.048 97.932 1327.651 92.422 C 1323.026 100.892 1333.345 89.994 1328.594 97.697 C 1332.868 93.307 1329.038 104.004 1334.293 97.075 C 1335.348 96.755 1333.201 99.494 1332.752 100.609 C 1338.055 97.381 1335.574 106.889 1342.491 101.269 C 1341.588 103.936 1342.101 106.009 1345.499 101.818 C 1344.278 105.032 1346.937 102.452 1345.019 106.076 C 1346.724 105.336 1347.499 105.358 1349.346 102.929 C 1349.626 103.349 1347.052 106.529 1346.899 107.369 C 1351.135 102.908 1346.686 114.044 1353.426 107.273 C 1354.202 107.097 1352.809 109.025 1351.703 110.676 C 1351.739 112.073 1354.322 107.491 1355.185 106.948 C 1353.301 111.327 1358.635 106.748 1355.047 112.977 C 1355.837 113.585 1357.197 111.221 1358.015 110.431 C 1356.311 114.421 1358.773 112.321 1360.814 110.819 C 1358.334 115.678 1360.292 114.865 1363.75 112.803 C 1363.073 114.34 1362.72 114.498 1361.625 115.929 C 1362.915 119.822 1370.95 109.848 1366.455 119.194 C 1369.383 114.8 1368.26 116.757 1367.581 118.434 C 1368.449 118.172 1368.423 116.641 1369.905 115.45 C 1370.188 115.867 1367.645 119.07 1367.505 119.903 C 1368.199 119.742 1368.665 120.136 1370.46 117.339 C 1371.507 117.006 1369.405 119.779 1368.976 120.898 C 1369.306 121.396 1370.218 120.498 1371.718 118.188 C 1371.16 119.438 1372.268 119.043 1370.236 121.748 C 1370.946 121.118 1371.834 120.064 1372.766 118.898 C 1372.936 119.777 1371.596 122.152 1371.915 122.885 C 1372.734 123.275 1373.795 119.125 1374.235 119.89 C 1375.283 120.174 1374.45 120.594 1372.545 123.31 C 1373.407 123.715 1374.097 122.145 1375.773 119.417 C 1376.537 119.473 1375.487 121.331 1373.595 124.019 C 1373.96 125.087 1376.598 120.667 1376.961 121.733 C 1374.966 125.038 1374.531 124.568 1372.539 127.867 C 1372.464 126.275 1369.485 127.937 1367.979 127.826 C 1370.333 135.412 1375.459 136.874 1378.565 139.444 C 1380.388 136.829 1376.555 146.052 1381.435 138.334 C 1382.03 138.446 1381.545 139.636 1379.989 141.901 C 1385.422 147.037 1391.389 152.13 1397.269 151.751 C 1399.868 155.198 1401.743 159.636 1403.849 163.826 C 1405.961 168.01 1408.279 171.984 1411.699 174.552 C 1409.325 177.741 1410.149 176.94 1407.633 180.924 C 1411.862 179.817 1406.367 189.413 1407.9 190.068 C 1405.278 194.344 1405.069 192.304 1402.76 195.753 C 1403.09 197.229 1406.982 195.017 1403.346 200.607 C 1402.709 199.197 1401.034 200.517 1400.056 200.005 C 1397.772 204.427 1400.664 203.504 1399.294 206.995 C 1395.814 212.539 1393.774 213.654 1394.336 215.78 C 1385.872 215.616 1377.76 211.959 1369.788 207.527 C 1361.831 203.069 1353.937 197.959 1345.841 194.831 C 1341.324 193.104 1336.339 192.538 1335.626 188.049 C 1313.363 181.213 1293.066 163.528 1272.28 152.004 C 1248.25 138.687 1224.606 125.666 1206.228 106.692 C 1200.417 100.679 1192.02 98.2 1186.68 91.749 C 1181.397 85.263 1175.538 79.479 1169.593 73.786 C 1163.667 68.071 1157.533 62.598 1151.769 56.69 C 1145.984 50.807 1140.443 44.643 1135.664 37.627 C 1133.217 34.071 1131.005 30.358 1129.042 26.512 C 1126.994 22.43 1125.257 18.199 1123.844 13.855 C 1128.23 4.3 1125.574 0.377 1128.831 -8.219 C 1136.797 -4.463 1161.744 -29.659 1166.748 -22.529 C 1169.923 -24.751 1173.032 -25.909 1172.48 -22.696 C 1175.472 -28.116 1171.965 -28.248 1172.999 -32.071 C 1179.917 -32.419 1183.352 -28.483 1186.516 -24.226 C 1203.083 -2.031 1219.414 18.797 1239.201 32.028 C 1237.824 35.798 1240.441 34.746 1240.894 36.494 C 1241.994 40.7 1248.292 38.907 1250.33 42.133 C 1252.578 45.671 1256.646 47.815 1259.975 52.555 C 1260.83 51.344 1260.245 51.425 1260.125 51.085 C 1261.089 51.077 1264.451 49.205 1260.787 53.167 C 1263.703 55.023 1266.813 59.086 1270.02 56.941 C 1268.963 59.898 1271.026 63.161 1275.064 59.093 C 1275.178 59.44 1273.868 61.066 1273.016 62.286 C 1275.582 60.569 1276.746 67.432 1279.696 65.646 C 1280.039 67.62 1283.922 64.413 1283.911 67.202 C 1284.53 67.251 1287.243 62.779 1288.05 62.421 C 1287.709 65.661 1294.07 61.748 1293.164 66.156 C 1290.824 68.989 1292.021 67.078 1291.6 66.578 C 1288.946 70.248 1289.822 70.68 1288.167 73.433 C 1288.705 74.056 1292.395 67.821 1292.164 70.108 C 1288.102 74.153 1292.094 73.561 1294.423 71.747 C 1291.966 74.25 1292.215 78.579 1296.271 73.087 M 1228.256 17.17 C 1231.039 13.27 1230.179 16.647 1231.203 16.27 C 1228.222 19.422 1230.078 16.338 1228.256 17.17 Z  M 1236.796 20.624 C 1237.992 20.246 1236.226 22.429 1237.02 22.401 C 1234.62 25.427 1234.328 23.647 1236.797 20.624 M 1242.109 29.493 C 1241.059 29.199 1240.575 28.417 1241.829 26.116 C 1242.649 25.826 1244.705 25.49 1242.109 29.493 Z  M 1304.729 76.107 C 1303.985 76.233 1304.689 75.014 1304.645 74.489 C 1305.991 72.729 1306.674 72.422 1306.939 73.041 L 1304.729 76.107 Z  M 1314.946 81.864 C 1316.105 80.893 1317.558 79.264 1318.166 79.528 L 1315.976 82.6 C 1314.831 82.863 1315.068 83.032 1314.946 81.864 Z  M 1247.143 33.343 C 1251.795 28.861 1252.116 33.133 1252.132 35.573 C 1248.505 38.966 1247.442 35.01 1247.142 33.343 M 1285.737 59.153 C 1284.797 61.236 1286.54 60.883 1287.03 61.668 C 1284.814 64.008 1283.155 63.285 1285.737 59.154 M 1293.367 66.304 C 1296.789 63.162 1296.525 66.779 1295.499 69.408 C 1294.114 69.908 1293.245 68.184 1293.368 66.304 M 1270.852 52.852 C 1274.848 47.395 1272.558 53.514 1274.802 52.636 C 1271.719 55.842 1272.299 53.664 1270.852 52.852 Z  M 1275.822 53.389 C 1276.422 53.629 1276.912 53.968 1276.294 55.304 C 1274.332 57.563 1273.387 56.784 1275.823 53.389 M 1279.28 60.649 C 1283.886 54.312 1284.858 57.936 1283.634 60.726 C 1281.2 62.81 1281.603 58.81 1279.28 60.649 Z  M 1375.557 128.383 C 1378.602 124.285 1379.007 126.525 1379.284 127.825 C 1377.444 129.467 1376.406 129.157 1375.557 128.383 Z  M 1384.707 132.945 C 1386.265 130.665 1386.736 131.042 1387.159 131.541 C 1384.899 135.274 1383.922 134.814 1384.707 132.945 Z  M 1260.007 41.542 C 1258.377 41.679 1258.827 37.502 1255.446 41.272 C 1255.931 42.502 1258.965 41.469 1256.566 45.259 C 1260.403 39.727 1256.97 45.767 1260.008 41.542" fill-rule="evenodd" fill="rgb(37,46,59)"/><path d=" M 89.874 273.283 L 93.946 276.261 C 93.34 273.91 93.684 273.599 95.173 272.446 C 90.21 268.898 93.933 273.226 89.037 270.152 C 91.309 272.391 90.101 272.772 89.874 273.282 M 86.692 281.958 C 84.802 281.131 85.282 282.874 82.592 281.181 C 83.608 282.375 86.91 284.61 84.902 284.423 C 82.66 282.945 83.174 282.723 83.31 282.329 C 80.18 280.657 81.792 283.441 84.307 285.244 C 84.388 286.429 80.757 283.601 80.353 284.266 C 80.579 284.893 81.719 285.129 83.413 286.476 C 82.198 286.015 80.36 284.886 79.757 285.089 C 85.131 288.796 79.432 286.135 78.413 286.939 C 78.639 287.566 79.781 287.799 81.474 289.146 C 79.055 288.632 79.82 289.286 77.222 288.586 C 76.729 288.913 80.78 291.286 82.188 292.47 C 82.194 292.108 80.448 290.955 79.268 290.056 C 80.728 290.654 83.545 292.716 83.951 292.179 C 87.064 295.845 82.615 294.308 84.081 296.326 C 79.559 293.099 84.703 294.242 77.797 289.938 C 77.358 292.228 83.079 297.741 75.291 293.453 C 79.844 298.311 70.161 293.211 77.625 298.868 C 76.241 298.843 74.263 298.185 72.341 297.591 C 71.069 297.749 76.323 300.826 74.682 300.817 C 71.672 298.551 71.795 301.282 70.129 300.692 C 70.365 301.321 71.501 301.544 73.209 302.882 C 64.806 298.752 76.152 308.796 67.623 304.206 C 67.623 304.572 69.377 305.713 70.56 306.596 C 64.227 303.556 71.876 311.262 65.565 307.105 C 67.976 309.261 67.988 310.355 68.521 311.678 C 68.691 312.458 66.774 311.036 65.143 309.915 C 67.343 312.308 61.848 309.735 67.358 313.338 C 58.888 308.713 69.786 319.032 62.083 314.281 C 66.473 318.555 55.776 314.725 62.705 319.98 C 63.025 321.035 60.286 318.888 59.171 318.439 C 62.399 323.742 52.891 321.261 58.511 328.178 C 55.844 327.275 53.771 327.788 57.962 331.186 C 54.748 329.965 57.328 332.624 53.704 330.706 C 54.444 332.411 54.422 333.186 56.851 335.033 C 56.431 335.313 53.251 332.739 52.411 332.586 C 56.872 336.822 45.736 332.373 52.507 339.113 C 52.683 339.889 50.755 338.496 49.104 337.39 C 47.707 337.426 52.289 340.009 52.832 340.872 C 48.453 338.988 53.032 344.322 46.803 340.734 C 46.195 341.524 48.559 342.884 49.349 343.702 C 45.359 341.998 47.459 344.46 48.961 346.501 C 44.102 344.021 44.915 345.979 46.977 349.437 C 45.44 348.76 45.282 348.407 43.851 347.312 C 39.958 348.602 49.932 356.637 40.586 352.142 C 44.98 355.07 43.023 353.947 41.346 353.268 C 41.608 354.136 43.139 354.11 44.33 355.592 C 43.913 355.875 40.71 353.332 39.877 353.192 C 40.038 353.886 39.644 354.352 42.441 356.147 C 42.774 357.194 40.001 355.092 38.882 354.663 C 38.384 354.993 39.282 355.905 41.592 357.405 C 40.342 356.847 40.737 357.955 38.032 355.923 C 38.662 356.633 39.716 357.521 40.882 358.453 C 40.003 358.623 37.628 357.283 36.895 357.602 C 36.505 358.421 40.655 359.482 39.89 359.922 C 39.606 360.97 39.186 360.137 36.47 358.232 C 36.065 359.094 37.635 359.784 40.363 361.46 C 40.307 362.224 38.449 361.174 35.761 359.282 C 34.693 359.647 39.113 362.285 38.047 362.648 C 34.742 360.653 35.212 360.218 31.913 358.226 C 33.505 358.151 31.843 355.172 31.954 353.666 C 24.368 356.02 22.906 361.146 20.336 364.252 C 22.951 366.075 13.728 362.242 21.446 367.122 C 21.334 367.717 20.144 367.232 17.879 365.676 C 12.743 371.109 7.65 377.076 8.029 382.956 C 4.582 385.555 0.144 387.43 -4.046 389.536 C -8.23 391.648 -12.204 393.966 -14.772 397.386 C -17.961 395.012 -17.16 395.836 -21.144 393.32 C -20.037 397.549 -29.633 392.054 -30.288 393.587 C -34.564 390.965 -32.524 390.756 -35.973 388.447 C -37.449 388.777 -35.237 392.669 -40.827 389.033 C -39.417 388.396 -40.737 386.721 -40.225 385.743 C -44.647 383.459 -43.724 386.351 -47.215 384.981 C -52.759 381.501 -53.874 379.461 -56 380.023 C -55.836 371.559 -52.179 363.447 -47.747 355.475 C -43.289 347.518 -38.179 339.624 -35.051 331.528 C -33.324 327.011 -32.758 322.026 -28.269 321.313 C -21.433 299.05 -3.748 278.753 7.776 257.967 C 21.093 233.937 34.114 210.293 53.088 191.915 C 59.101 186.104 61.58 177.707 68.031 172.367 C 74.517 167.084 80.301 161.225 85.994 155.28 C 91.709 149.354 97.182 143.22 103.09 137.456 C 108.973 131.671 115.137 126.13 122.153 121.351 C 125.71 118.903 129.422 116.691 133.268 114.729 C 137.351 112.681 141.582 110.943 145.925 109.531 C 155.48 113.917 159.403 111.261 167.999 114.518 C 164.243 122.484 189.439 147.431 182.309 152.435 C 184.531 155.61 185.689 158.719 182.476 158.167 C 187.896 161.159 188.028 157.652 191.851 158.686 C 192.199 165.604 188.263 169.039 184.006 172.203 C 161.811 188.77 140.983 205.101 127.752 224.888 C 123.982 223.511 125.034 226.128 123.286 226.581 C 119.08 227.681 120.873 233.979 117.647 236.017 C 114.109 238.265 111.965 242.333 107.225 245.662 C 108.436 246.517 108.355 245.932 108.695 245.812 C 108.703 246.776 110.575 250.138 106.613 246.474 C 104.757 249.39 100.694 252.5 102.839 255.707 C 99.882 254.65 96.619 256.713 100.687 260.751 C 100.34 260.865 98.714 259.555 97.494 258.703 C 99.211 261.269 92.348 262.433 94.134 265.383 C 92.16 265.726 95.367 269.609 92.578 269.598 C 92.529 270.217 97.001 272.93 97.359 273.737 C 94.119 273.396 98.032 279.757 93.624 278.851 C 90.791 276.511 92.702 277.708 93.202 277.287 C 89.532 274.633 89.1 275.509 86.347 273.854 C 85.724 274.392 91.959 278.082 89.672 277.851 C 85.627 273.789 86.219 277.781 88.033 280.11 C 85.53 277.653 81.201 277.902 86.693 281.958 M 142.61 213.943 C 146.51 216.726 143.133 215.866 143.51 216.89 C 140.358 213.909 143.442 215.765 142.61 213.943 Z  M 139.156 222.483 C 139.534 223.679 137.351 221.913 137.379 222.707 C 134.353 220.307 136.133 220.015 139.156 222.484 M 130.287 227.796 C 130.581 226.746 131.363 226.262 133.664 227.516 C 133.954 228.336 134.29 230.392 130.287 227.796 Z  M 83.673 290.416 C 83.547 289.672 84.766 290.376 85.291 290.332 C 87.051 291.678 87.358 292.361 86.739 292.626 L 83.673 290.416 Z  M 77.916 300.633 C 78.887 301.792 80.516 303.245 80.252 303.853 L 77.18 301.663 C 76.917 300.518 76.748 300.755 77.916 300.633 Z  M 126.437 232.83 C 130.919 237.482 126.647 237.803 124.207 237.819 C 120.814 234.192 124.77 233.129 126.437 232.829 M 100.627 271.424 C 98.544 270.484 98.897 272.227 98.112 272.717 C 95.772 270.501 96.495 268.842 100.626 271.424 M 93.476 279.054 C 96.618 282.476 93.001 282.212 90.372 281.186 C 89.872 279.801 91.596 278.932 93.476 279.055 M 106.928 256.539 C 112.385 260.535 106.266 258.245 107.144 260.489 C 103.938 257.406 106.116 257.986 106.928 256.539 Z  M 106.391 261.509 C 106.151 262.109 105.812 262.599 104.476 261.981 C 102.217 260.019 102.996 259.074 106.391 261.51 M 99.131 264.967 C 105.468 269.573 101.844 270.545 99.054 269.321 C 96.97 266.887 100.97 267.29 99.131 264.967 Z  M 31.397 361.244 C 35.495 364.289 33.255 364.694 31.955 364.971 C 30.313 363.131 30.623 362.093 31.397 361.244 Z  M 26.835 370.394 C 29.115 371.952 28.738 372.423 28.239 372.846 C 24.506 370.586 24.966 369.609 26.835 370.394 Z  M 118.238 245.694 C 118.101 244.064 122.278 244.514 118.508 241.133 C 117.278 241.618 118.311 244.652 114.521 242.253 C 120.053 246.09 114.013 242.657 118.238 245.695" fill-rule="evenodd" fill="rgb(251,73,38)"/><path d=" M 200.9 104.96 C 200.571 105.42 200.541 105.59 200.16 106.09 C 197.517 108.778 198.368 107.741 198.373 107.596 C 198.377 107.324 197.02 108.476 197.289 107.939 C 196.829 108.412 196.258 109.127 195.935 109.401 C 195.355 109.446 194.305 110.312 194.313 109.736 C 193.32 110.976 194.416 109.812 193.799 110.608 C 193.469 110.663 192.634 111.308 192.044 111.747 C 191.826 111.911 192.215 111.272 192.066 111.337 C 191.124 111.752 190.484 111.822 189.71 112.114 C 189.042 112.378 188.787 111.973 187.992 112.647 C 188.535 111.163 187.988 111.747 187.647 112.096 C 187.74 110.726 186.802 111.498 186.659 110.211 C 186.55 109.436 186.314 108.881 186.004 108.584 C 185.842 108.414 185.948 107.175 185.948 106.131 C 185.945 105.583 185.795 105.671 185.732 105.383 C 185.648 105.024 185.428 105.481 185.706 103.313 C 185.353 103.511 185.421 101.76 184.993 101.808 C 185.346 98.856 185.23 98.352 185.577 95.082 C 185.914 92.895 186.053 92.927 186.341 91.464 C 186.554 91.444 186.934 90.421 187.282 89.581 C 187.498 89.062 187.428 90.133 187.536 90.31 C 187.748 90.656 188.178 90.163 188.448 90.163 C 188.888 90.16 189.576 88.874 189.993 88.806 C 190.695 89.911 191.347 90.893 192.599 90.29 C 192.606 90.204 192.79 89.652 192.769 89.64 C 192.983 89.028 192.569 90.499 192.444 90.944 C 193.476 92.169 194.544 93.17 195.786 93.764 C 198.519 95.092 200.786 96.018 202.54 98.424 C 202.76 98.74 203.585 98.384 202.981 99.654 C 202.549 100.55 202.459 101.088 202.508 101.456 C 202.576 101.976 202.886 102.231 202.254 103.496 C 202.414 103.456 200.921 104.903 200.9 104.959 L 200.9 104.96 Z  M 245.81 136.964 C 246.252 137.311 247.131 136.9 246.97 138.313 C 246.853 139.316 247.035 139.925 247.313 140.341 C 247.712 140.937 248.269 141.187 248.251 142.681 C 248.444 142.626 247.377 144.371 247.386 144.439 C 247.259 144.994 247.346 145.199 247.186 145.808 C 245.43 149.071 245.826 147.794 245.706 147.61 C 245.474 147.266 244.274 148.6 244.214 147.932 C 243.87 148.482 243.57 149.337 243.267 149.645 C 242.261 149.589 241.113 150.47 240.505 149.663 C 239.822 151.068 240.791 149.805 240.413 150.719 C 239.791 150.68 238.745 151.26 237.898 151.609 C 237.582 151.737 237.718 150.99 237.457 151.005 C 235.76 151.107 234.225 150.781 232.51 150.609 C 230.988 150.453 229.886 149.629 228.247 149.834 C 228.378 148.174 227.426 148.53 226.703 148.651 C 225.877 146.826 223.722 146.864 222.59 145.005 C 221.905 143.875 221.103 142.962 220.212 142.27 C 219.733 141.9 219.752 140.554 219.661 139.395 C 219.611 138.785 219.27 138.747 219.117 138.372 C 218.925 137.905 218.401 138.17 219.093 136.142 C 218.323 136.036 218.645 134.297 217.813 133.992 C 218.987 131.355 218.886 130.778 220.222 127.88 C 221.273 126.005 221.467 126.117 222.24 124.89 C 222.542 124.985 223.316 124.217 223.971 123.588 C 224.379 123.198 224.029 124.187 224.136 124.411 C 224.344 124.853 225.031 124.579 225.386 124.704 C 225.976 124.911 227.103 123.957 227.644 124.051 C 228.354 125.411 229.179 126.677 230.874 126.494 C 230.889 126.41 231.161 125.912 231.134 125.892 C 231.448 125.346 230.823 126.697 230.636 127.106 C 231.956 128.714 233.506 130.099 235.298 131.046 C 239.281 133.146 242.495 134.336 245.811 136.964 L 245.81 136.964 Z  M 173.073 137.478 C 173.674 137.877 174.715 137.474 174.711 138.998 C 174.706 140.079 175.015 140.75 175.417 141.214 C 175.992 141.879 176.717 142.187 176.887 143.803 C 177.12 143.753 176.016 145.58 176.037 145.655 C 175.947 146.248 176.082 146.473 175.956 147.122 C 174.186 150.547 174.521 149.19 174.35 148.985 C 174.027 148.601 172.713 149.977 172.56 149.254 C 172.205 149.829 171.94 150.736 171.608 151.054 C 170.369 150.944 169.079 151.845 168.238 150.953 C 167.582 152.435 168.603 151.116 168.255 152.085 C 167.494 152.017 166.292 152.605 165.309 152.952 C 164.943 153.079 165.014 152.279 164.697 152.29 C 162.649 152.35 160.747 151.964 158.644 151.755 C 156.782 151.568 155.329 150.678 153.374 150.894 C 153.286 149.122 152.184 149.5 151.33 149.637 C 150.046 147.687 147.443 147.759 145.759 145.797 C 144.733 144.609 143.597 143.653 142.389 142.944 C 141.743 142.561 141.514 141.128 141.185 139.898 C 141.008 139.249 140.586 139.217 140.324 138.824 C 139.999 138.334 139.412 138.638 139.858 136.449 C 138.898 136.365 138.938 134.499 137.854 134.211 C 138.754 131.349 138.507 130.736 139.541 127.586 C 140.443 125.544 140.711 125.656 141.408 124.316 C 141.807 124.406 142.608 123.558 143.294 122.864 C 143.719 122.433 143.497 123.504 143.677 123.738 C 144.033 124.206 144.835 123.895 145.307 124.021 C 146.093 124.226 147.307 123.176 148.004 123.267 C 149.185 124.713 150.473 126.062 152.564 125.854 C 152.564 125.764 152.805 125.224 152.772 125.205 C 153.056 124.615 152.539 126.07 152.385 126.512 C 154.359 128.232 156.556 129.726 158.969 130.764 C 164.322 133.077 168.542 134.471 173.073 137.478 L 173.073 137.478 Z  M 135.705 87.89 C 135.542 88.09 136.642 86.836 136.51 86.882 C 138.27 84.639 138.492 84.23 140.325 81.669 C 141.608 79.977 141.685 80.044 142.605 78.946 C 142.765 78.998 143.545 78.302 144.237 77.764 C 144.664 77.431 144.067 78.271 144.056 78.452 C 144.03 78.812 144.601 78.588 144.802 78.705 C 145.118 78.88 146.347 78.201 146.696 78.349 C 146.591 79.535 146.392 80.493 147.621 80.687 C 147.681 80.633 148.165 80.345 148.158 80.324 C 148.701 80.014 147.464 80.815 147.088 81.057 C 146.963 82.385 146.888 83.457 147.184 84.39 C 147.802 86.421 148.34 88.244 147.205 90.264 C 147.053 90.51 147.733 90.998 146.391 90.935 C 145.446 90.881 144.961 90.938 144.681 91.045 C 144.285 91.187 144.206 91.468 142.904 91.199 C 143.011 91.299 141.179 90.479 141.124 90.469 C 140.609 90.296 140.467 90.28 139.904 90.061 C 136.581 88.572 137.766 89.09 137.871 89.105 C 138.07 89.129 136.483 88.489 137.007 88.673 L 135.47 88.128 C 135.55 88.05 135.614 87.982 135.705 87.89 L 135.705 87.89 Z  M 160.018 32.278 C 159.79 31.691 160.396 33.048 160.582 33.458 C 161.889 33.788 163.132 33.812 164.19 33.372 C 166.537 32.394 168.138 31.24 170.603 31.054 C 170.928 31.027 170.938 30.185 171.713 31.297 C 172.263 32.089 172.669 32.412 172.988 32.536 C 173.448 32.715 173.751 32.546 174.613 33.627 C 174.635 33.467 175.347 35.385 175.39 35.427 C 175.677 35.904 175.82 35.996 176.13 36.534 C 177.526 39.967 176.896 38.805 176.757 38.748 C 176.491 38.646 176.924 40.351 176.521 39.909 C 176.742 40.518 177.154 41.319 177.247 41.728 C 176.929 42.315 177.117 43.662 176.475 43.465 C 177.098 44.898 176.639 43.387 177.064 44.28 C 176.864 44.639 176.906 45.706 176.868 46.486 C 176.854 46.773 176.458 46.153 176.391 46.328 C 175.971 47.461 175.348 48.184 174.762 49.132 C 174.241 49.969 173.452 50.065 173.102 51.235 C 172.179 49.964 172.115 50.813 171.982 51.352 C 170.689 50.558 170.101 51.931 168.699 51.304 C 167.849 50.921 167.093 50.77 166.437 50.83 C 166.087 50.86 165.31 49.884 164.612 49.112 C 164.245 48.706 164.125 48.891 163.863 48.718 C 163.538 48.503 163.545 49.019 162.563 47.136 C 162.283 47.54 161.363 46.094 160.951 46.395 C 159.752 43.771 159.388 43.42 158.083 40.512 C 157.293 38.513 157.412 38.472 156.917 37.109 C 157.059 36.989 156.831 35.955 156.651 35.095 C 156.541 34.562 157.017 35.489 157.176 35.584 C 157.491 35.77 157.527 35.144 157.701 35.014 C 157.989 34.794 157.754 33.406 157.961 33.137 C 158.951 33.667 159.921 34.059 160.294 32.871 C 160.248 32.803 160.036 32.276 160.018 32.278 L 160.018 32.278 Z " fill-rule="evenodd" fill="rgb(251,173,55)"/></g></svg>