<?xml version="1.0" encoding="UTF-8" standalone="no"?><!-- Generator: Gravit.io --><svg xmlns="http://www.w3.org/2000/svg" xmlns:xlink="http://www.w3.org/1999/xlink" style="isolation:isolate" viewBox="111.394 257.189 476.944 45.753" width="476.944pt" height="45.753pt"><defs><clipPath id="_clipPath_9mNFopisuaIkcvnBXnc0epJeTqndH1bu"><rect x="111.394" y="257.189" width="476.944" height="45.753"/></clipPath></defs><g clip-path="url(#_clipPath_9mNFopisuaIkcvnBXnc0epJeTqndH1bu)"><g><path d=" M 527.52 291.39 C 530.184 290.781 532.965 290.382 535.821 290.066 C 541.813 289.351 547.973 289.183 553.356 288.472 C 536.985 286.015 520.36 286.73 507.098 286.659 C 491.387 286.589 472.977 286.722 449.133 286.421 C 403.629 285.874 341.673 285.55 280.183 288.308 C 262.007 289.156 243.82 289.89 225.714 291.226 C 218.913 291.742 212.101 292.265 205.3 292.781 C 193.37 293.722 181.448 294.667 169.515 295.507 C 159.41 296.218 146.964 299.82 136.077 299.527 C 123.663 299.191 115.015 293.105 112.319 281.41 C 111.319 277.16 110.67 270.937 112.866 267.316 C 115.073 263.683 116.299 262.648 117.639 261.671 C 120.873 259.374 124.87 257.589 126.772 257.523 C 153.018 256.777 182.311 257.425 205.807 258.07 C 224.248 258.593 242.729 259.085 267.022 259.109 C 296.131 259.562 383.302 261.124 412.402 261.156 C 431.691 261.179 450.937 262.781 470.125 264.851 C 486.09 266.57 502.23 268.386 518.641 270.425 C 534.512 272.367 543.942 272.496 559.989 274.73 C 562.489 275.054 565.434 275.378 568.618 275.769 C 571.27 276.023 574.708 276.48 577.297 276.648 C 579.899 276.773 583.497 278.718 588.318 284.097 C 588.571 292.105 586.368 296.281 582.81 296.417 C 579.568 297.999 576.974 298.78 575.286 299.073 C 568.81 300.499 562.743 300.944 558.177 300.237 C 555.103 299.757 545.888 301.214 537.825 302.284 C 531.872 303.124 528.493 303.253 519.259 302.124 C 514.4 300.862 514.275 297.128 519.939 293.991 C 522.466 292.851 525.361 291.878 527.521 291.39 L 527.52 291.39 Z " fill="rgb(40,110,250)"/></g></g></svg>