<?xml version="1.0" encoding="UTF-8" standalone="no"?><!-- Generator: Gravit.io --><svg xmlns="http://www.w3.org/2000/svg" xmlns:xlink="http://www.w3.org/1999/xlink" style="isolation:isolate" viewBox="4.023 3.537 71.985 72.663" width="71.985pt" height="72.663pt"><defs><clipPath id="_clipPath_aANp7rIFDexmWrvid4KK3EZuMGL8FaR8"><rect x="4.023" y="3.537" width="71.985" height="72.663"/></clipPath></defs><g clip-path="url(#_clipPath_aANp7rIFDexmWrvid4KK3EZuMGL8FaR8)"><g><g><path d=" M 62.3 17.1 C 62.1 17.1 61.8 17 61.6 16.8 C 61.2 16.4 61.2 15.8 61.5 15.4 L 69.7 6.2 C 70.1 5.8 70.7 5.8 71.1 6.1 C 71.5 6.5 71.5 7.1 71.2 7.5 L 63 16.7 C 62.8 16.9 62.6 17.1 62.3 17.1 Z " fill="rgb(40,110,250)"/></g><g><path d=" M 58.8 13.3 C 58.7 13.3 58.6 13.3 58.4 13.2 C 57.9 13 57.6 12.4 57.8 11.9 L 60.8 4.2 C 61 3.7 61.6 3.4 62.1 3.6 C 62.6 3.8 62.9 4.4 62.7 4.9 L 59.7 12.6 C 59.5 13 59.2 13.3 58.8 13.3 Z " fill="rgb(40,110,250)"/></g><g><path d=" M 13.9 24.2 C 13.6 24.2 13.4 24.1 13.2 23.9 L 5.4 15.9 C 5 15.5 5 14.9 5.4 14.5 C 5.8 14.1 6.4 14.1 6.8 14.5 L 14.6 22.5 C 15 22.9 15 23.5 14.6 23.9 C 14.4 24.1 14.2 24.2 13.9 24.2 Z " fill="rgb(40,110,250)"/></g><g><path d=" M 11.7 28.1 C 11.6 28.1 11.4 28.1 11.3 28 L 4.6 24.8 C 4.1 24.6 3.9 24 4.1 23.5 C 4.3 23 4.9 22.8 5.4 23 L 12.1 26.2 C 12.6 26.4 12.8 27 12.6 27.5 C 12.4 27.9 12.1 28.1 11.7 28.1 Z " fill="rgb(40,110,250)"/></g><g><path d=" M 74.6 26.4 C 73.4 25.3 71.6 24.8 69.9 25.4 C 68.2 25.9 67.1 27.3 66.8 29.2 L 64.6 38.7 C 64.5 38.9 64.3 39.1 64.1 39.1 C 63.9 39.1 63.6 39 63.5 38.8 L 61.7 34.6 L 62.3 33.6 C 63.7 31.4 63.1 28.6 60.8 27 C 60 26.5 59.1 26.1 58.1 26.1 L 56.4 22 C 56.5 21.1 56.2 20.1 55.7 19.3 C 55.4 18.9 55.1 18.5 54.7 18.1 L 50.4 7 C 49.4 4.6 47.6 3.5 45.7 4.3 C 44.1 4.9 42.8 6.8 43.5 8.8 L 46.9 18.8 C 46.8 18.9 46.7 19.1 46.6 19.3 L 44.8 22.4 L 44 20.8 C 44.5 18.1 42.7 15.8 40.6 14.9 L 36.6 7.9 C 35.8 6.4 34.6 6 33.7 6 C 32.4 6 31.1 6.7 30.4 7.8 C 30.1 8.4 29.6 9.6 30.5 11.1 L 34 17.5 C 33.8 17.8 33.7 18.1 33.5 18.5 L 32.2 21.7 L 29.4 18 C 27.7 15.8 25.7 15.9 24.5 16.8 C 23.3 17.6 22.5 19.4 23.5 20.9 L 29.1 29.3 L 27 34.3 L 23.3 31.2 C 21.6 29.8 20 30.1 19.1 31 C 18.3 31.8 17.9 33.4 19.2 34.8 C 19.4 35 21.9 37.1 24.7 39.8 L 23 43.9 L 22 39.6 C 21.5 37.1 19.9 35.2 17.7 34.4 C 15.5 33.7 13 34.2 11.3 35.8 C 9.5 37.5 8.9 40.1 9.6 42.9 C 9.9 44 10.2 45.3 10.5 46.5 C 12.3 53.9 14.4 62.2 18.1 68.1 C 21.1 72.8 27 76.2 32 76.2 C 32.6 76.2 33.2 76.2 33.7 76.1 C 38.2 75.3 43.6 73.2 49.9 64.6 C 50.8 64.9 51.8 65.1 52.7 65.3 C 53.2 65.4 53.7 65.4 54.2 65.4 C 58.7 65.4 64.3 62.2 67.1 57.8 C 70.9 51.8 73 43.1 74.9 35.5 L 75 35 C 75.3 33.8 75.6 32.7 75.8 31.7 C 76.3 29.6 75.9 27.6 74.6 26.4 Z  M 64 44.9 C 63 45.8 53 54.6 50.3 58.6 C 49.1 60.5 48 62.2 46.9 63.6 L 46.9 63.6 C 46.9 63.6 46.9 63.6 46.9 63.6 C 46.6 64 46.2 64.4 45.9 64.8 C 45.9 64.8 45.9 64.9 45.8 64.9 C 44.1 66.9 42.6 68.5 41.1 69.6 C 41.1 69.6 41.1 69.6 41.1 69.6 C 40.8 69.8 40.6 70 40.3 70.2 C 40.3 70.2 40.2 70.3 40.2 70.3 C 39.9 70.5 39.7 70.7 39.4 70.8 C 39.4 70.8 39.3 70.8 39.3 70.9 C 38.5 71.4 37.7 71.8 37 72.1 C 37 72.1 36.9 72.1 36.9 72.2 C 36.7 72.3 36.5 72.3 36.3 72.4 C 36.2 72.4 36.1 72.5 36 72.5 C 35.8 72.6 35.7 72.6 35.5 72.7 C 35.4 72.7 35.2 72.8 35.1 72.8 C 35 72.8 34.8 72.9 34.7 72.9 C 34.5 72.9 34.4 73 34.2 73 C 34.1 73 34 73.1 33.9 73.1 C 33.6 73.2 33.3 73.2 33.1 73.3 C 29 74 23.3 71 20.6 66.7 C 17.1 61.2 15.1 53.1 13.4 46 C 13.1 44.8 12.8 43.5 12.5 42.4 C 12 40.6 12.3 39.1 13.3 38.2 C 13.9 37.6 14.8 37.3 15.7 37.3 C 16.1 37.3 16.4 37.4 16.8 37.5 C 18 37.9 18.8 38.9 19.1 40.4 L 21.1 49.3 C 21.2 49.9 21.8 50.4 22.4 50.5 C 23.1 50.5 23.7 50.2 23.9 49.6 L 30.7 33.2 L 31 32.4 L 31 32.4 L 34.3 24.5 L 34.3 24.5 L 35 22.8 L 36.3 19.6 C 37 17.8 38.2 17.1 39.5 17.6 C 40.6 18 41.5 19.3 41 20.6 L 34.5 39.5 L 34.2 40.3 L 34.2 40.3 L 33.9 41.2 C 33.6 41.9 34 42.7 34.7 43.1 C 35.4 43.4 36.2 43.2 36.6 42.5 L 41.5 34 L 41.5 34 L 42.1 33 L 47.9 23 L 48.2 22.5 L 48.2 22.5 L 49.3 20.7 C 49.7 19.9 50.4 19.5 51.1 19.5 C 52 19.5 52.9 20 53.3 20.7 C 53.7 21.4 53.6 22.1 53.2 22.9 L 50.2 28.4 L 50.2 28.4 L 49.6 29.4 L 41.3 44.6 C 40.9 45.3 41.1 46.2 41.8 46.6 C 42.5 47 43.3 46.9 43.8 46.2 L 55.8 30.4 C 56.8 29.1 58 28.7 59.1 29.5 C 59.9 30 60.4 31.1 59.8 32 L 47.2 51 C 46.8 51.6 46.9 52.5 47.4 52.9 C 47.9 53.3 48.8 53.4 49.4 52.9 L 61.4 42.9 C 62.6 41.9 63.5 42.1 64.1 42.7 C 64.6 43.2 64.8 44 64 44.9 Z " fill="rgb(40,110,250)"/></g></g></g></svg>